<svg xmlns="http://www.w3.org/2000/svg" width="363.94" height="589.34" viewBox="0 0 363.94 589.34"><path d="M206.44,65.16A139.58,139.58,0,0,0,67.32,204.29v233.1a139.13,139.13,0,0,0,278.25,0V204.29A139.58,139.58,0,0,0,206.44,65.16Z" fill="#fff"/><path d="M206.44,589.34a157.94,157.94,0,0,1-157.5-157.5v-222A157.33,157.33,0,0,1,317.69,98.59a156.38,156.38,0,0,1,46.25,111.25v222a157.93,157.93,0,0,1-157.5,157.5Zm0-512a132.92,132.92,0,0,0-132.5,132.5v222a132.5,132.5,0,0,0,265,0v-222a132.92,132.92,0,0,0-132.5-132.5Z" fill="#9b9b9b"/><path d="M213.44,77a138.47,138.47,0,0,1,131,137.83v82h-131V77m-7-7.17h0v234h145v-89c0-79.75-65.25-145-145-145Z" fill="#9b9b9b"/><path d="M71.38,300.4V214.84a143.16,143.16,0,0,1,40.16-100c25-25.94,57.94-40.6,93-41.5V300.4Z" fill="#006ab0"/><path d="M201.06,76.9V297H74.82V214.84A139.74,139.74,0,0,1,114,117.21c23.57-24.41,54.26-38.57,87-40.31m6.88-7.06h0c-77,0-140,65.25-140,145v89h140v-234Z" fill="#9b9b9b"/><path d="M102.19,64.26a6,6,0,0,1-6-6V6a6,6,0,1,1,12,0v52.2A6,6,0,0,1,102.19,64.26Z" fill="#9b9b9b"/><path d="M76.69,78.09a6,6,0,0,1-4.26-1.77L35.51,39.41A6,6,0,1,1,44,30.89L81,67.8a6,6,0,0,1-4.26,10.29Z" fill="#9b9b9b"/><path d="M58.23,102.4H6A6,6,0,0,1,6,90.34h52.2a6,6,0,1,1,0,12.06Z" fill="#9b9b9b"/><path d="M206.44,277.84a13,13,0,0,1-13-13v-102a13,13,0,1,1,26,0v102A13,13,0,0,1,206.44,277.84Z" fill="#9b9b9b"/></svg>