<svg xmlns="http://www.w3.org/2000/svg" width="315" height="537" viewBox="0 0 315 537"><path d="M157.5,12.82A139.56,139.56,0,0,0,18.38,152v233.1A138.94,138.94,0,0,0,255.75,483.3a138.16,138.16,0,0,0,40.88-98.25V152A139.58,139.58,0,0,0,157.5,12.82Z" fill="#fff"/><path d="M157.5,537A157.91,157.91,0,0,1,0,379.5v-222A157.32,157.32,0,0,1,268.74,46.25,156.39,156.39,0,0,1,315,157.5v222A157.93,157.93,0,0,1,157.5,537Zm0-512A132.92,132.92,0,0,0,25,157.5v222A132.92,132.92,0,0,0,157.5,512h0A132.92,132.92,0,0,0,290,379.5v-222A132.92,132.92,0,0,0,157.5,25Z" fill="#9b9b9b"/><path d="M164.5,24.68a138.45,138.45,0,0,1,131,137.82v82h-131V24.68m-7-7.18h0v234h145v-89c0-79.75-65.25-145-145-145Z" fill="#9b9b9b"/><path d="M150.5,24.68V244.5H19.5v-82a138.45,138.45,0,0,1,131-137.82m7-7.18h0c-79.75,0-145,65.25-145,145v89h145V17.5Z" fill="#9b9b9b"/><path d="M129.61,116.47H95.72a5.5,5.5,0,0,1,0-11h33.89a5.5,5.5,0,0,1,0,11Z" fill="#9b9b9b"/><path d="M157.5,225.5a13,13,0,0,1-13-13v-102a13,13,0,0,1,26,0v102A13,13,0,0,1,157.5,225.5Z" fill="#006ab0"/><path d="M137.82,95.49a5.45,5.45,0,0,1-3.89-1.61l-24-24a5.5,5.5,0,1,1,7.77-7.78l24,24a5.5,5.5,0,0,1,0,7.78A5.44,5.44,0,0,1,137.82,95.49Z" fill="#9b9b9b"/><path d="M218,116.2H184.13a5.5,5.5,0,0,1,0-11H218a5.5,5.5,0,0,1,0,11Z" fill="#9b9b9b"/><path d="M176.84,95.49A5.5,5.5,0,0,1,173,86.1l24-24a5.5,5.5,0,1,1,7.77,7.78l-24,24A5.49,5.49,0,0,1,176.84,95.49Z" fill="#9b9b9b"/><path d="M157.36,81.94a4.5,4.5,0,0,1-4.5-4.5V43.55a4.5,4.5,0,0,1,9,0V77.44A4.5,4.5,0,0,1,157.36,81.94Z" fill="#9b9b9b"/></svg>