<svg xmlns="http://www.w3.org/2000/svg" width="370.09" height="584.37" viewBox="0 0 370.09 584.37"><path d="M157.5,60.19A139.56,139.56,0,0,0,18.38,199.32v233.1a138.94,138.94,0,0,0,237.37,98.24,138.12,138.12,0,0,0,40.88-98.24V199.32A139.58,139.58,0,0,0,157.5,60.19Z" fill="#fff"/><path d="M157.5,584.37A157.93,157.93,0,0,1,0,426.87v-222A157.33,157.33,0,0,1,268.75,93.62,156.43,156.43,0,0,1,315,204.87v222a157.93,157.93,0,0,1-157.5,157.5Zm0-512A132.92,132.92,0,0,0,25,204.87v222a132.32,132.32,0,0,0,226.07,93.56A131.55,131.55,0,0,0,290,426.87v-222A132.92,132.92,0,0,0,157.5,72.37Z" fill="#9b9b9b"/><path d="M160.07,295.43V68.35c35,.9,67.91,15.56,93,41.5a143.15,143.15,0,0,1,40.16,100v85.57Z" fill="#006ab0"/><path d="M163.51,71.93c32.78,1.74,63.48,15.89,87.05,40.31a139.76,139.76,0,0,1,39.19,97.63V292H163.51V71.93m-6.88-7.06h0v234h140v-89c0-79.75-63-145-140-145Z" fill="#9b9b9b"/><path d="M150.5,72V291.87H19.5v-82A138.47,138.47,0,0,1,150.5,72m7-7.17h0c-79.75,0-145,65.25-145,145v89h145v-234Z" fill="#9b9b9b"/><path d="M157.5,272.87a13,13,0,0,1-13-13v-102a13,13,0,0,1,26,0v102A13,13,0,0,1,157.5,272.87Z" fill="#9b9b9b"/><path d="M267.9,64.26a6,6,0,0,1-6-6V6a6,6,0,1,1,12.05,0v52.2A6,6,0,0,1,267.9,64.26Z" fill="#9b9b9b"/><path d="M293.4,78.09a6,6,0,0,1-4.26-10.29l36.91-36.91a6,6,0,1,1,8.53,8.52L297.66,76.32A6,6,0,0,1,293.4,78.09Z" fill="#9b9b9b"/><path d="M364.06,102.4h-52.2a6,6,0,0,1,0-12.06h52.2a6,6,0,0,1,0,12.06Z" fill="#9b9b9b"/></svg>