<svg xmlns="http://www.w3.org/2000/svg" width="30.165" height="60" viewBox="0 0 30.165 60">
  <g id="One_finger_drag" data-name="One finger drag" transform="translate(-86.908 -138.538)">
    <path id="Path_51" data-name="Path 51" d="M116.386,170.806a2.345,2.345,0,0,0-1.73-.8c-1.106-.051-2.068-.112-2.614-.149a1.924,1.924,0,0,0-1.819-1.69l-3.235-.142a2.006,2.006,0,0,0-.556.057,1.929,1.929,0,0,0-1.756-1.361l-3.236-.142a1.937,1.937,0,0,0-.611.082l.01-13.558a3.542,3.542,0,1,0-7.078-.292l-.278,16.44L88.165,173.5a3.354,3.354,0,0,0-1.213,3.153c.361,2.217,1.14,6.448,1.345,7.089a12.9,12.9,0,0,0,6.629,5.966l-.768,13.98a.7.7,0,0,0,.657.735h.039a.7.7,0,0,0,.7-.659l.787-14.337,0-.007a.7.7,0,0,0-.475-.865,11.394,11.394,0,0,1-6.242-5.24c-.152-.475-.892-4.4-1.3-6.888a1.956,1.956,0,0,1,.707-1.839l4.418-3.532-.139,8.192a.7.7,0,0,0,.685.709h.012a.7.7,0,0,0,.7-.685l.447-26.422a2.138,2.138,0,0,1,.7-1.493,2.111,2.111,0,0,1,1.546-.563,2.136,2.136,0,0,1,1.491.7,2.163,2.163,0,0,1,.561,1.579l-.012,15.345v1.461a.7.7,0,0,0,.7.7h0a.7.7,0,0,0,.7-.7v-1.4a.527.527,0,0,1,.551-.5l3.235.143a.53.53,0,0,1,.507.533l-.112.966a1.93,1.93,0,0,0-.028.25.7.7,0,0,0,1.388.112l.017-.146a.521.521,0,0,1,.54-.411l3.235.142a.535.535,0,0,1,.506.57l-.037,1.749a.7.7,0,0,0,.682.712h.015a.7.7,0,0,0,.7-.683l.013-.654c.567.038,1.5.1,2.555.144a.933.933,0,0,1,.732.311,2.3,2.3,0,0,1,.344,1.52l-.607,10.462c-.088,1.523-.544,3.078-3.259,4.125a.706.706,0,0,0-.134.07.7.7,0,0,0-.606.743l1.155,15.167a.7.7,0,0,0,.694.645l.054,0a.7.7,0,0,0,.642-.749l-1.115-14.649c2.585-1.051,3.812-2.682,3.961-5.269l.6-10.426A3.637,3.637,0,0,0,116.386,170.806Z" transform="translate(0 -5.904)" fill="#9b9b9b"/>
    <g id="Group_106" data-name="Group 106" transform="translate(88.533 138.538)">
      <path id="Path_52" data-name="Path 52" d="M92.567,152.038a.684.684,0,0,1-.559-.288,8.371,8.371,0,1,1,13.774-.158.685.685,0,0,1-1.135-.767,7,7,0,1,0-11.522.132.684.684,0,0,1-.558,1.081Z" transform="translate(-90.469 -138.538)" fill="#006ab0"/>
    </g>
  </g>
</svg>
