<svg xmlns="http://www.w3.org/2000/svg" width="28.654" height="60" viewBox="0 0 28.654 60">
  <g id="Two_finger_drag" data-name="Two finger drag" transform="translate(-702 -558.634)">
    <path id="Path_53" data-name="Path 53" d="M116.848,320.108a2.329,2.329,0,0,0-1.717-.792c-1.072-.049-2.005-.107-2.545-.144a1.882,1.882,0,0,0-.482-1.036,1.9,1.9,0,0,0-1.327-.618l-1.587-.069h0l-.568-.025h0l-1.018-.044a1.847,1.847,0,0,0-.452.033c-.073-3.216-.546-16.4-.651-17.931a3.1,3.1,0,0,0-3.292-3.011,3.476,3.476,0,0,0-3.542,3.153c-.064-.074-.13-.146-.2-.214A3.724,3.724,0,0,0,97,298.489a3.437,3.437,0,0,0-2.668.949,3.754,3.754,0,0,0-.876,3.042l.434,16.36-3.771,3a3.293,3.293,0,0,0-1.2,3.106c.354,2.163,1.117,6.3,1.322,6.937l.017.055c.508,1.611,2.034,5.355,5.468,6.681l-.753,13.66a.707.707,0,0,0,.668.744h.039a.707.707,0,0,0,.707-.668l.773-14.019,0,0a.706.706,0,0,0-.482-.875c-3.176-.922-4.6-4.464-5.071-5.944l-.02-.062c-.151-.471-.876-4.309-1.273-6.734A1.881,1.881,0,0,1,91,322.946l2.935-2.336.207,7.8a.707.707,0,0,0,.707.687h.019a.706.706,0,0,0,.689-.724l-.69-25.972a2.48,2.48,0,0,1,.483-1.986,2.081,2.081,0,0,1,1.61-.515h.061a2.23,2.23,0,0,1,1.471.538,2.284,2.284,0,0,1,.578,1.718l.713,16.8c0,.019.006.037.009.056a.617.617,0,0,0,.011.073c0,.017.01.034.016.051a.721.721,0,0,0,.032.086c0,.008.008.016.013.024a.651.651,0,0,0,.061.1h0a.709.709,0,0,0,.319.24l.023.007a.76.76,0,0,0,.1.028c.021,0,.042,0,.064.006s.038.006.058.006h.03c.02,0,.04-.006.06-.009a.612.612,0,0,0,.066-.009.722.722,0,0,0,.072-.022c.02-.007.041-.013.06-.021s.045-.024.067-.036.035-.019.051-.031a.746.746,0,0,0,.059-.049.568.568,0,0,0,.043-.039.647.647,0,0,0,.049-.059c.012-.016.025-.031.035-.047a.712.712,0,0,0,.037-.067c.009-.018.019-.035.026-.054a.741.741,0,0,0,.023-.073c.006-.02.012-.039.016-.06a.7.7,0,0,0,.008-.078c0-.017.005-.034.005-.051,0-.937-.068-2.638-.148-4.607-.2-4.827-.464-11.437-.062-14.143.238-1.609.871-2.253,2.259-2.3a1.7,1.7,0,0,1,1.833,1.684c.135,1.975.669,17.591.658,18.446l-.11.942a1.93,1.93,0,0,0-.027.247.708.708,0,0,0,1.411.113l.016-.141a.489.489,0,0,1,.506-.382l1.02.044h0l.568.025h.008l1.581.069a.491.491,0,0,1,.345.161.5.5,0,0,1,.129.372l-.036,1.711a.708.708,0,0,0,.693.721h.015a.707.707,0,0,0,.708-.691l.013-.615c.559.037,1.46.093,2.485.139a.9.9,0,0,1,.7.3,2.217,2.217,0,0,1,.331,1.469l-.6,10.233c-.087,1.482-.532,2.994-3.186,4.014a.726.726,0,0,0-.134.069.705.705,0,0,0-.609.75l1.134,14.834a.708.708,0,0,0,.705.652l.055,0a.707.707,0,0,0,.652-.758l-1.094-14.31c2.537-1.032,3.742-2.632,3.89-5.167l.593-10.2A3.569,3.569,0,0,0,116.848,320.108Z" transform="translate(613.125 265.59)" fill="#9b9b9b"/>
    <g id="Group_108" data-name="Group 108" transform="translate(703.776 558.634)">
      <path id="Path_54" data-name="Path 54" d="M93.341,302.28a.74.74,0,0,1-.651-.385,6.915,6.915,0,0,1,7.569-10.067,6.914,6.914,0,0,1,10.981,8.32.742.742,0,1,1-1.254-.793,5.43,5.43,0,0,0-8.875-6.235.742.742,0,0,1-.8.255,5.432,5.432,0,0,0-6.323,7.808.742.742,0,0,1-.65,1.1Z" transform="translate(-91.843 -289.544)" fill="#006ab0"/>
    </g>
  </g>
</svg>
