<svg xmlns="http://www.w3.org/2000/svg" width="36.915" height="61.128" viewBox="0 0 36.915 61.128">
  <g id="pinch" transform="translate(-515.669 -192.006)">
    <path id="Path_58" data-name="Path 58" d="M559.632,235.6a2.171,2.171,0,0,0-1.6-.74c-1.024-.046-1.914-.1-2.42-.137a1.781,1.781,0,0,0-1.685-1.563l-3-.132a1.913,1.913,0,0,0-.515.052,1.786,1.786,0,0,0-1.626-1.258l-3-.132a1.85,1.85,0,0,0-.566.079l.01-12.538a3.281,3.281,0,1,0-6.556-.272l-.351,18.187q-.152-.283-.326-.573a8.805,8.805,0,0,0-6.131-4.467.611.611,0,0,0-.089-.009,2.351,2.351,0,0,0-2.6,1.768,3.687,3.687,0,0,0,1.035,2.63c.08.107.155.209.222.3,2.116,3.01,3.2,6.4,4.347,9.982l.211.665c1.035,3.5,3.07,5,4.766,5.631l-.711,12.924a.645.645,0,0,0,.609.679h.036a.645.645,0,0,0,.644-.61l.729-13.256,0-.006a.644.644,0,0,0-.439-.8c-1.468-.427-3.423-1.63-4.4-4.93l-.22-.693c-1.126-3.52-2.291-7.159-4.519-10.331-.073-.1-.156-.215-.243-.332-.37-.5-.877-1.18-.8-1.646.108-.637.936-.7,1.261-.694,5.086.858,6.557,7.079,6.571,7.142a.645.645,0,0,0,1.274-.13l.414-21.4a1.974,1.974,0,0,1,.644-1.381,1.94,1.94,0,0,1,1.432-.52,1.977,1.977,0,0,1,1.381.644,2,2,0,0,1,.52,1.46l-.011,14.187v1.351a.645.645,0,0,0,.645.645h0a.645.645,0,0,0,.645-.645v-1.3a.489.489,0,0,1,.51-.464l3,.132a.491.491,0,0,1,.47.493l-.1.894a1.87,1.87,0,0,0-.026.231.645.645,0,0,0,1.286.1l.015-.136a.49.49,0,0,1,.147-.252.463.463,0,0,1,.353-.128l3,.132a.5.5,0,0,1,.469.527L554.3,236.6a.646.646,0,0,0,.632.659h.014a.645.645,0,0,0,.645-.632l.013-.6c.525.035,1.385.089,2.366.133a.866.866,0,0,1,.678.288,2.12,2.12,0,0,1,.318,1.405l-.562,9.674c-.082,1.409-.5,2.846-3.018,3.814a1.292,1.292,0,0,0-.686.752l1.069,14.023a.645.645,0,0,0,.642.6l.05,0a.646.646,0,0,0,.594-.692l-1.033-13.545a5.164,5.164,0,0,0,3.669-4.871l.559-9.64A3.357,3.357,0,0,0,559.632,235.6Z" transform="translate(-7.686 -13.569)" fill="#9b9b9b"/>
    <path id="Path_56" data-name="Path 56" d="M520.513,249.5a5.6,5.6,0,0,0-.4,7.894c.077.085.156.166.24.248l-2.555,3.636-.943-.657a.573.573,0,0,0-.9.419l-.286,3.265a.573.573,0,0,0,.813.569l2.971-1.384a.573.573,0,0,0,.086-.988l-.806-.564,2.515-3.578a5.581,5.581,0,0,0,1.4.645.573.573,0,0,0,.33-1.1,4.443,4.443,0,1,1,4.581-7.234.573.573,0,0,0,.85-.768A5.6,5.6,0,0,0,520.513,249.5Z" transform="translate(0 -31.954)" fill="#006ab0"/>
    <path id="Path_57" data-name="Path 57" d="M557.708,192.114a.6.6,0,0,0-.6-.052L554,193.511a.6.6,0,0,0-.09,1.035l.947.663-3.183,4.529a5.842,5.842,0,0,0-6.466,8.9c.151.221,0,.021.184.222a.6.6,0,1,0,.89-.8c-.163-.18.007.043-.122-.153a4.65,4.65,0,1,1,8.53-2.788.6.6,0,1,0,1.2-.059,5.811,5.811,0,0,0-3.075-4.851l3.026-4.306.88.617a.6.6,0,0,0,.6.052.61.61,0,0,0,.347-.494l.3-3.417A.6.6,0,0,0,557.708,192.114Z" transform="translate(-16.261)" fill="#006ab0"/>
  </g>
</svg>
